<?xml version="1.0" encoding="UTF-8" standalone="no"?>
<!-- Created with Inkscape (http://www.inkscape.org/) -->

<svg
   width="512"
   height="512"
   viewBox="0 0 512 512.00002"
   version="1.1"
   id="svg7936"
   xml:space="preserve"
   inkscape:version="1.2.2 (b0a8486541, 2022-12-01)"
   sodipodi:docname="profile.svg"
   inkscape:export-filename="profile.png"
   inkscape:export-xdpi="96"
   inkscape:export-ydpi="96"
   xmlns:inkscape="http://www.inkscape.org/namespaces/inkscape"
   xmlns:sodipodi="http://sodipodi.sourceforge.net/DTD/sodipodi-0.dtd"
   xmlns="http://www.w3.org/2000/svg"
   xmlns:svg="http://www.w3.org/2000/svg"><sodipodi:namedview
     id="namedview7938"
     pagecolor="#505050"
     bordercolor="#eeeeee"
     borderopacity="1"
     inkscape:showpageshadow="0"
     inkscape:pageopacity="0"
     inkscape:pagecheckerboard="0"
     inkscape:deskcolor="#505050"
     inkscape:document-units="px"
     showgrid="false"
     inkscape:zoom="0.56568544"
     inkscape:cx="326.15299"
     inkscape:cy="284.61047"
     inkscape:window-width="1920"
     inkscape:window-height="1053"
     inkscape:window-x="0"
     inkscape:window-y="0"
     inkscape:window-maximized="1"
     inkscape:current-layer="layer1"><inkscape:grid
       type="xygrid"
       id="grid27392" /></sodipodi:namedview><defs
     id="defs7933" /><g
     inkscape:label="Layer 1"
     inkscape:groupmode="layer"
     id="layer1"><rect
       style="opacity:1;fill:#00a8ff;fill-opacity:1;stroke:none;stroke-width:19.5071;stroke-linecap:round;stroke-linejoin:round;stroke-dasharray:none;stroke-opacity:1"
       id="rect10730"
       width="512"
       height="512"
       x="0"
       y="0" /><path
       id="path61815"
       style="fill:#ffd600;fill-opacity:1;stroke:none;stroke-width:20;stroke-linecap:round;stroke-linejoin:round;stroke-dasharray:none;stroke-opacity:1"
       d="m 66.470703,213.06445 c -2.211905,5.10318 -4.133705,10.38502 -5.654297,15.89649 1.689101,-5.53799 3.609192,-10.79722 5.654297,-15.89649 z m -5.654297,15.89649 0,283.32226 L 450.37891,512 451.18359,228.70117 c -33.68523,-21.27913 -73.17254,10.14154 -89.83789,24.98438 -33.80805,-36.43546 -177.28998,-36.62098 -207.27734,-0.0879 -19.53269,-14.96204 -44.86262,-48.4711 -93.251954,-24.63672 z"
       sodipodi:nodetypes="cccccccccsc" /><path
       style="fill:none;stroke:#5700ff;stroke-width:15;stroke-linecap:round;stroke-linejoin:round;stroke-dasharray:none;stroke-opacity:1"
       d="M 256.0725,37.019042 V 129.47425"
       id="path30424"
       sodipodi:nodetypes="cc" /><path
       style="opacity:1;fill:#00a8ff;fill-opacity:1;stroke:none;stroke-width:16.1617;stroke-linecap:round;stroke-linejoin:round;stroke-dasharray:none;stroke-opacity:1;paint-order:stroke fill markers"
       d="m 240.60735,172.29577 c -1.73118,26.16385 0.19533,63.09289 -8.80414,72.41939 -86.53946,77.25713 -35.77242,164.71061 35.1154,164.71061 65.82953,0 117.02043,-85.9065 41.41487,-164.74952 -9.32684,-9.60175 -9.98297,-46.23147 -11.62024,-72.02152 z"
       id="path59483"
       sodipodi:nodetypes="cccccc" /><path
       style="opacity:1;fill:#ffffff;fill-opacity:1;stroke:none;stroke-width:15;stroke-linecap:round;stroke-linejoin:round;stroke-dasharray:none;stroke-opacity:1;paint-order:stroke fill markers"
       d="m 223.42484,196.34633 c -1.74597,22.34652 -3.00586,53.88759 -12.08228,61.85335 -87.27942,65.98526 -30.73191,149.48175 40.76205,149.48175 66.3924,0 112.67462,-82.17522 36.42258,-149.51498 -9.40658,-8.20085 -12.20357,-39.48627 -13.85485,-61.51353 z"
       id="path8702"
       sodipodi:nodetypes="cccccc" /><path
       style="fill:none;stroke:#5700ff;stroke-width:15;stroke-linecap:round;stroke-linejoin:round;stroke-dasharray:none;stroke-opacity:1"
       d="M 256.13069,191.14202 V 333.72894"
       id="path8169"
       sodipodi:nodetypes="cc" /><path
       style="fill:none;stroke:#5700ff;stroke-width:15;stroke-linecap:round;stroke-linejoin:round;stroke-dasharray:none;stroke-opacity:1"
       d="m 218.22162,303.97451 c 0,42.14812 75.40398,42.43631 75.40398,0"
       id="path8171"
       sodipodi:nodetypes="cc" /><path
       style="opacity:1;fill:#5700ff;fill-opacity:1;stroke:none;stroke-width:20;stroke-linecap:round;stroke-linejoin:round;stroke-dasharray:none;stroke-opacity:1"
       d="m 256.06814,78.168631 c -59.60433,0 -162.44946,23.248269 -195.250804,130.792749 48.389384,-23.8344 73.718094,9.67375 93.250804,24.6358 29.98739,-36.53312 173.46867,-36.34709 207.27676,0.0884 16.66536,-14.84285 56.153,-46.26448 89.83827,-24.98533 C 416.14693,98.401939 322.15941,78.168631 256.06814,78.168631 Z"
       id="path8686"
       sodipodi:nodetypes="cccccc" /></g></svg>
